<svg width="800" height="500" xmlns="http://www.w3.org/2000/svg"> <rect x="0" y="0" width="800" height="500" fill="#1e1e1e" />

<rect x="0" y="0" width="800" height="60" fill="#2d2d2d" /> <text x="20" y="38" font-family="Arial" font-size="20" fill="#ffffff" font-weight="bold">Quantum AML Scout</text>

<rect x="220" y="15" width="400" height="30" rx="5" fill="#3d3d3d" stroke="#555" /> <text x="235" y="36" font-family="Arial" font-size="14" fill="#aaaaaa">Search Wallet Address (e.g., 0x71C...)</text> <rect x="580" y="15" width="30" height="30" rx="5" fill="#007bff" /> <text x="588" y="35" font-family="Arial" font-size="16" fill="white">🔍</text>

<circle cx="760" cy="30" r="15" fill="#555" /> <text x="700" y="35" font-family="Arial" font-size="12" fill="#fff">Admin</text>

<rect x="20" y="80" width="240" height="250" rx="10" fill="#252526" stroke="#333" /> <text x="40" y="110" font-family="Arial" font-size="16" fill="#cccccc" font-weight="bold">Risk Probability</text>

<path d="M 50 200 A 70 70 0 1 1 190 200" fill="none" stroke="#444" stroke-width="20" stroke-linecap="round"/> <path d="M 50 200 A 70 70 0 1 1 180 150" fill="none" stroke="#ff4d4d" stroke-width="20" stroke-linecap="round"/> <text x="85" y="190" font-family="Arial" font-size="36" fill="#ff4d4d" font-weight="bold">94.5%</text> <text x="95" y="220" font-family="Arial" font-size="14" fill="#ff4d4d">HIGH RISK</text> <text x="40" y="260" font-family="Arial" font-size="12" fill="#888">Inference Time: 230ms</text> <text x="40" y="280" font-family="Arial" font-size="12" fill="#00ff00">● QGNN Active</text>

<rect x="280" y="80" width="500" height="250" rx="10" fill="#252526" stroke="#333" /> <text x="300" y="110" font-family="Arial" font-size="16" fill="#cccccc" font-weight="bold">Quantum Topology Graph</text>

<line x1="450" y1="200" x2="380" y2="160" stroke="#555" stroke-width="2" /> <line x1="450" y1="200" x2="550" y2="150" stroke="#ff4d4d" stroke-width="3" stroke-dasharray="5,5" /> <line x1="550" y1="150" x2="650" y2="180" stroke="#ff4d4d" stroke-width="3" stroke-dasharray="5,5" /> <line x1="450" y1="200" x2="480" y2="280" stroke="#555" stroke-width="2" />

<circle cx="450" cy="200" r="15" fill="#ffffff" stroke="#007bff" stroke-width="3" /> <text x="430" y="235" font-family="Arial" font-size="12" fill="#fff">Target</text>

<circle cx="380" cy="160" r="10" fill="#4caf50" /> <circle cx="480" cy="280" r="10" fill="#4caf50" /> <circle cx="550" cy="150" r="12" fill="#ff4d4d" /> <text x="540" y="130" font-family="Arial" font-size="11" fill="#ff4d4d">Layering</text>

<circle cx="650" cy="180" r="12" fill="#ff4d4d" /> <text x="640" y="210" font-family="Arial" font-size="11" fill="#ff4d4d">Tornado Cash</text>

<rect x="20" y="350" width="760" height="130" rx="10" fill="#252526" stroke="#333" /> <text x="40" y="380" font-family="Arial" font-size="16" fill="#cccccc" font-weight="bold">Quantum XAI Explanation (SAR Support)</text>

<text x="40" y="410" font-family="Arial" font-size="12" fill="#aaa">Proximity to Blacklist (Hop Distance)</text> <rect x="250" y="400" width="300" height="10" rx="5" fill="#333" /> <rect x="250" y="400" width="280" height="10" rx="5" fill="#ff4d4d" /> <text x="40" y="435" font-family="Arial" font-size="12" fill="#aaa">Complex Loop Structure (Quantum Feature)</text> <rect x="250" y="425" width="300" height="10" rx="5" fill="#333" /> <rect x="250" y="425" width="240" height="10" rx="5" fill="#ff9800" /> <text x="40" y="460" font-family="Arial" font-size="12" fill="#aaa">Transaction Frequency</text> <rect x="250" y="450" width="300" height="10" rx="5" fill="#333" /> <rect x="250" y="450" width="100" height="10" rx="5" fill="#4caf50" /> <rect x="580" y="390" width="180" height="70" rx="5" fill="#333" stroke="#444" /> <text x="590" y="410" font-family="Arial" font-size="11" fill="#fff">⚠️ Alert Summary:</text> <text x="590" y="430" font-family="Arial" font-size="10" fill="#ccc">Address linked to known</text> <text x="590" y="445" font-family="Arial" font-size="10" fill="#ccc">DPRK mixer within 2 hops.</text> </svg>